Spongebob Squarepants chronicles the wacky adventures of a goodhearted, enthusiastic sea sponge and his nautical pals Squidward, Mr. Krabs, Patrick the Starfish, and Sandy the Squirrel in the underwater town of Bikini Bottom.

Episodes

1. All That Glitters
2. Whale of a Birthday
3. Once Bitten
4. Chimps Ahoy
5. Bummer Vacation
6. Wigstruck
7. That's No Lady


Format                           : MPEG-4
Format profile                   : Base Media / Version 2
Codec ID                         : mp42
File size                        : 900 MiB
Duration                         : 1h 22mn
Overall bit rate                 : 1 526 Kbps
Encoded date                     : UTC 2010-02-02 06:04:50
Tagged date                      : UTC 2010-02-02 09:11:33
Writing application              : HandBrake 0.9.3 2008112300

Video
ID                               : 1
Format                           : AVC
Format/Info                      : Advanced Video Codec
Format profile                   : Main@L4.0
Format settings, CABAC           : Yes
Format settings, ReFrames        : 3 frames
Codec ID                         : avc1
Codec ID/Info                    : Advanced Video Coding
Duration                         : 1h 22mn
Bit rate mode                    : Variable
Bit rate                         : 1 363 Kbps
Width                            : 714 pixels
Height                           : 572 pixels
Display aspect ratio             : 4:3
Original display aspect ratio    : 4:3
Frame rate mode                  : Variable
Frame rate                       : 25.000 fps
Minimum frame rate               : 12.500 fps
Maximum frame rate               : 36.309 fps
Resolution                       : 24 bits
Colorimetry                      : 4:2:0
Scan type                        : Progressive
Bits/(Pixel*Frame)               : 0.133
Stream size                      : 803 MiB (89%)
Writing library                  : x264 core 65


Audio
ID                               : 2
Format                           : AAC
Format/Info                      : Advanced Audio Codec
Format version                   : Version 4
Format profile                   : LC
Format settings, SBR             : No
Codec ID                         : 40
Duration                         : 1h 22mn
Bit rate mode                    : Variable
Bit rate                         : 160 Kbps
Maximum bit rate                 : 230 Kbps
Channel(s)                       : 2 channels
Channel positions                : L R
Sampling rate                    : 48.0 KHz
Resolution                       : 16 bits
Stream size                      : 94.1 MiB (10%)
Language                         : English
Encoded date                     : UTC 2010-02-02 06:04:50
Tagged date                      : UTC 2010-02-02 09:11:30

